<mxfile host="app.diagrams.net" agent="Mozilla/5.0 (X11; Linux x86_64) AppleWebKit/537.36 (KHTML, like Gecko) Chrome/140.0.0.0 Safari/537.36" version="28.2.3">
  <diagram name="第 1 页" id="JocW46uq9P6UCGH1JRsc">
    <mxGraphModel dx="452" dy="255" grid="1" gridSize="10" guides="1" tooltips="1" connect="1" arrows="1" fold="1" page="1" pageScale="1" pageWidth="2339" pageHeight="3300" math="0" shadow="0">
      <root>
        <mxCell id="0" />
        <mxCell id="1" parent="0" />
        <mxCell id="tgirtB-t3Bg2d2rDa6on-3" style="edgeStyle=orthogonalEdgeStyle;curved=1;rounded=0;orthogonalLoop=1;jettySize=auto;html=1;exitX=0;exitY=0.5;exitDx=0;exitDy=0;startArrow=classic;startFill=1;endArrow=none;endFill=0;entryX=1;entryY=0.5;entryDx=0;entryDy=0;" parent="1" source="tgirtB-t3Bg2d2rDa6on-1" target="tgirtB-t3Bg2d2rDa6on-6" edge="1">
          <mxGeometry relative="1" as="geometry">
            <mxPoint x="170" y="240" as="targetPoint" />
          </mxGeometry>
        </mxCell>
        <mxCell id="tgirtB-t3Bg2d2rDa6on-8" value="SUB" style="edgeLabel;html=1;align=center;verticalAlign=middle;resizable=0;points=[];" parent="tgirtB-t3Bg2d2rDa6on-3" vertex="1" connectable="0">
          <mxGeometry x="0.0082" y="2" relative="1" as="geometry">
            <mxPoint as="offset" />
          </mxGeometry>
        </mxCell>
        <mxCell id="tgirtB-t3Bg2d2rDa6on-5" style="edgeStyle=orthogonalEdgeStyle;curved=1;rounded=0;orthogonalLoop=1;jettySize=auto;html=1;exitX=1;exitY=0.5;exitDx=0;exitDy=0;entryX=0;entryY=0.5;entryDx=0;entryDy=0;" parent="1" source="tgirtB-t3Bg2d2rDa6on-1" target="tgirtB-t3Bg2d2rDa6on-7" edge="1">
          <mxGeometry relative="1" as="geometry">
            <mxPoint x="670" y="210" as="targetPoint" />
          </mxGeometry>
        </mxCell>
        <mxCell id="tgirtB-t3Bg2d2rDa6on-9" value="PUB" style="edgeLabel;html=1;align=center;verticalAlign=middle;resizable=0;points=[];" parent="tgirtB-t3Bg2d2rDa6on-5" vertex="1" connectable="0">
          <mxGeometry x="-0.125" y="2" relative="1" as="geometry">
            <mxPoint x="2" y="2" as="offset" />
          </mxGeometry>
        </mxCell>
        <mxCell id="tgirtB-t3Bg2d2rDa6on-1" value="pedestrian_to_goal_node.py&lt;br&gt;根据历史点和当前点计算方向(四元数)" style="rounded=1;whiteSpace=wrap;html=1;fillColor=#dae8fc;strokeColor=#6c8ebf;" parent="1" vertex="1">
          <mxGeometry x="390" y="210" width="160" height="60" as="geometry" />
        </mxCell>
        <mxCell id="tgirtB-t3Bg2d2rDa6on-6" value="&lt;span style=&quot;font-size: 11px; text-wrap-mode: nowrap; background-color: rgb(255, 255, 255);&quot;&gt;由RGBD产生的(ROS2)&lt;br&gt;/tracking_object/position&lt;/span&gt;" style="ellipse;whiteSpace=wrap;html=1;" parent="1" vertex="1">
          <mxGeometry x="190" y="215" width="130" height="50" as="geometry" />
        </mxCell>
        <mxCell id="tgirtB-t3Bg2d2rDa6on-30" style="edgeStyle=orthogonalEdgeStyle;curved=1;rounded=0;orthogonalLoop=1;jettySize=auto;html=1;exitX=0.5;exitY=1;exitDx=0;exitDy=0;entryX=0.5;entryY=0;entryDx=0;entryDy=0;" parent="1" source="tgirtB-t3Bg2d2rDa6on-7" target="tgirtB-t3Bg2d2rDa6on-10" edge="1">
          <mxGeometry relative="1" as="geometry" />
        </mxCell>
        <mxCell id="tgirtB-t3Bg2d2rDa6on-32" style="edgeStyle=orthogonalEdgeStyle;curved=1;rounded=0;orthogonalLoop=1;jettySize=auto;html=1;exitX=1;exitY=0.5;exitDx=0;exitDy=0;entryX=0;entryY=0.25;entryDx=0;entryDy=0;" parent="1" source="tgirtB-t3Bg2d2rDa6on-7" target="tgirtB-t3Bg2d2rDa6on-31" edge="1">
          <mxGeometry relative="1" as="geometry" />
        </mxCell>
        <mxCell id="tgirtB-t3Bg2d2rDa6on-7" value="&lt;span style=&quot;background-color: rgb(255, 255, 255);&quot;&gt;&lt;span style=&quot;font-size: 11px; text-wrap-mode: nowrap;&quot;&gt;&lt;font style=&quot;color: rgb(255, 0, 0);&quot;&gt;&lt;b&gt;目标位置和移动方向&lt;/b&gt;&lt;/font&gt;&lt;br&gt;/move_base_simple/goal&lt;/span&gt;&lt;br&gt;&lt;span style=&quot;font-size: 11px; text-wrap-mode: nowrap;&quot;&gt;PoseStamped：Pose+方向&lt;/span&gt;&lt;/span&gt;" style="ellipse;whiteSpace=wrap;html=1;" parent="1" vertex="1">
          <mxGeometry x="630" y="207" width="190" height="65" as="geometry" />
        </mxCell>
        <mxCell id="tgirtB-t3Bg2d2rDa6on-21" style="edgeStyle=orthogonalEdgeStyle;curved=1;rounded=0;orthogonalLoop=1;jettySize=auto;html=1;exitX=1;exitY=0.5;exitDx=0;exitDy=0;entryX=0;entryY=0.5;entryDx=0;entryDy=0;" parent="1" source="tgirtB-t3Bg2d2rDa6on-10" target="tgirtB-t3Bg2d2rDa6on-20" edge="1">
          <mxGeometry relative="1" as="geometry" />
        </mxCell>
        <mxCell id="tgirtB-t3Bg2d2rDa6on-27" value="PUB" style="edgeLabel;html=1;align=center;verticalAlign=middle;resizable=0;points=[];" parent="tgirtB-t3Bg2d2rDa6on-21" vertex="1" connectable="0">
          <mxGeometry x="-0.0756" relative="1" as="geometry">
            <mxPoint as="offset" />
          </mxGeometry>
        </mxCell>
        <mxCell id="tgirtB-t3Bg2d2rDa6on-25" value="" style="edgeStyle=orthogonalEdgeStyle;curved=1;rounded=0;orthogonalLoop=1;jettySize=auto;html=1;" parent="1" source="tgirtB-t3Bg2d2rDa6on-10" target="tgirtB-t3Bg2d2rDa6on-24" edge="1">
          <mxGeometry relative="1" as="geometry" />
        </mxCell>
        <mxCell id="tgirtB-t3Bg2d2rDa6on-28" value="PUB" style="edgeLabel;html=1;align=center;verticalAlign=middle;resizable=0;points=[];" parent="tgirtB-t3Bg2d2rDa6on-25" vertex="1" connectable="0">
          <mxGeometry x="0.0362" y="-1" relative="1" as="geometry">
            <mxPoint as="offset" />
          </mxGeometry>
        </mxCell>
        <mxCell id="tgirtB-t3Bg2d2rDa6on-10" value="dynamic_velocity_controller" style="rounded=1;whiteSpace=wrap;html=1;fillColor=#dae8fc;strokeColor=#6c8ebf;" parent="1" vertex="1">
          <mxGeometry x="470" y="450" width="150" height="60" as="geometry" />
        </mxCell>
        <mxCell id="tgirtB-t3Bg2d2rDa6on-16" style="edgeStyle=orthogonalEdgeStyle;curved=1;rounded=0;orthogonalLoop=1;jettySize=auto;html=1;exitX=1;exitY=0.5;exitDx=0;exitDy=0;entryX=0;entryY=0.5;entryDx=0;entryDy=0;" parent="1" source="tgirtB-t3Bg2d2rDa6on-15" target="tgirtB-t3Bg2d2rDa6on-10" edge="1">
          <mxGeometry relative="1" as="geometry" />
        </mxCell>
        <mxCell id="tgirtB-t3Bg2d2rDa6on-17" value="SUB" style="edgeLabel;html=1;align=center;verticalAlign=middle;resizable=0;points=[];" parent="tgirtB-t3Bg2d2rDa6on-16" vertex="1" connectable="0">
          <mxGeometry x="0.0494" y="-2" relative="1" as="geometry">
            <mxPoint as="offset" />
          </mxGeometry>
        </mxCell>
        <mxCell id="tgirtB-t3Bg2d2rDa6on-15" value="&lt;div&gt;&lt;span style=&quot;font-size: 11px; text-wrap-mode: nowrap;&quot;&gt;odom&lt;/span&gt;&lt;/div&gt;&lt;div&gt;&lt;span style=&quot;font-size: 11px; text-wrap-mode: nowrap;&quot;&gt;(也就是机器人的坐标)&lt;/span&gt;&lt;/div&gt;" style="ellipse;whiteSpace=wrap;html=1;" parent="1" vertex="1">
          <mxGeometry x="280" y="520" width="130" height="50" as="geometry" />
        </mxCell>
        <mxCell id="tgirtB-t3Bg2d2rDa6on-19" value="目标位置的坐标/方向处理:" style="text;strokeColor=none;align=center;fillColor=none;html=1;verticalAlign=middle;whiteSpace=wrap;rounded=0;fontStyle=1" parent="1" vertex="1">
          <mxGeometry x="390" y="177" width="142" height="30" as="geometry" />
        </mxCell>
        <mxCell id="tgirtB-t3Bg2d2rDa6on-20" value="安全距离&lt;br&gt;/tracking_object/safety_distance" style="ellipse;whiteSpace=wrap;html=1;" parent="1" vertex="1">
          <mxGeometry x="680" y="360" width="190" height="60" as="geometry" />
        </mxCell>
        <mxCell id="tgirtB-t3Bg2d2rDa6on-24" value="TEB局部路径规划器动态参数&lt;br&gt;/move_base/TebLocalPlannerROS&lt;br&gt;（最大速度限制）" style="rhombus;whiteSpace=wrap;html=1;rounded=1;" parent="1" vertex="1">
          <mxGeometry x="680" y="500" width="240" height="82.5" as="geometry" />
        </mxCell>
        <mxCell id="tgirtB-t3Bg2d2rDa6on-29" value="动态速度的控制" style="text;strokeColor=none;align=center;fillColor=none;html=1;verticalAlign=middle;whiteSpace=wrap;rounded=0;fontStyle=1" parent="1" vertex="1">
          <mxGeometry x="430" y="420" width="142" height="30" as="geometry" />
        </mxCell>
        <mxCell id="bKKhn9Pamj0dwOwQ77PS-11" style="edgeStyle=orthogonalEdgeStyle;curved=1;rounded=0;orthogonalLoop=1;jettySize=auto;html=1;exitX=1;exitY=0.5;exitDx=0;exitDy=0;entryX=0;entryY=0.5;entryDx=0;entryDy=0;" edge="1" parent="1" source="tgirtB-t3Bg2d2rDa6on-31" target="bKKhn9Pamj0dwOwQ77PS-10">
          <mxGeometry relative="1" as="geometry" />
        </mxCell>
        <mxCell id="tgirtB-t3Bg2d2rDa6on-31" value="Move Base" style="rounded=1;whiteSpace=wrap;html=1;fillColor=#dae8fc;strokeColor=#6c8ebf;" parent="1" vertex="1">
          <mxGeometry x="1120" y="220" width="150" height="60" as="geometry" />
        </mxCell>
        <mxCell id="tgirtB-t3Bg2d2rDa6on-34" style="edgeStyle=orthogonalEdgeStyle;curved=1;rounded=0;orthogonalLoop=1;jettySize=auto;html=1;exitX=1;exitY=0.5;exitDx=0;exitDy=0;entryX=0;entryY=0.25;entryDx=0;entryDy=0;" parent="1" source="tgirtB-t3Bg2d2rDa6on-33" target="tgirtB-t3Bg2d2rDa6on-31" edge="1">
          <mxGeometry relative="1" as="geometry" />
        </mxCell>
        <mxCell id="tgirtB-t3Bg2d2rDa6on-33" value="/mid360_PointCloud2_filtered&lt;br&gt;Livox激光雷达 &lt;b&gt;&lt;font style=&quot;color: rgb(255, 0, 0);&quot;&gt;-&amp;gt;&lt;/font&gt;&lt;/b&gt; /mid360_PointCloud2_filtered &lt;b&gt;&lt;font style=&quot;color: rgb(255, 0, 0);&quot;&gt;-&amp;gt;&lt;/font&gt;&lt;/b&gt;代价地图" style="ellipse;whiteSpace=wrap;html=1;" parent="1" vertex="1">
          <mxGeometry x="470" y="70" width="370" height="80" as="geometry" />
        </mxCell>
        <mxCell id="tgirtB-t3Bg2d2rDa6on-36" style="edgeStyle=orthogonalEdgeStyle;curved=1;rounded=0;orthogonalLoop=1;jettySize=auto;html=1;exitX=1;exitY=0.5;exitDx=0;exitDy=0;entryX=0;entryY=0.25;entryDx=0;entryDy=0;" parent="1" source="tgirtB-t3Bg2d2rDa6on-35" target="tgirtB-t3Bg2d2rDa6on-31" edge="1">
          <mxGeometry relative="1" as="geometry">
            <Array as="points">
              <mxPoint x="990" y="35" />
              <mxPoint x="990" y="235" />
            </Array>
          </mxGeometry>
        </mxCell>
        <mxCell id="tgirtB-t3Bg2d2rDa6on-35" value="/tf &amp;amp; /tf_static &amp;amp; /odom" style="ellipse;whiteSpace=wrap;html=1;" parent="1" vertex="1">
          <mxGeometry x="640" y="10" width="210" height="50" as="geometry" />
        </mxCell>
        <mxCell id="tgirtB-t3Bg2d2rDa6on-37" value="edestrian_to_goal_node → /move_base_simple/goal → goalCB() → Action Goal → executeCb() → 状态机 → 控制指令 → /cmd_vel → 机器人" style="text;strokeColor=none;align=center;fillColor=none;html=1;verticalAlign=middle;whiteSpace=wrap;rounded=0;" parent="1" vertex="1">
          <mxGeometry x="1150" y="130" width="780" height="30" as="geometry" />
        </mxCell>
        <mxCell id="bKKhn9Pamj0dwOwQ77PS-5" value="" style="edgeStyle=orthogonalEdgeStyle;rounded=0;orthogonalLoop=1;jettySize=auto;html=1;curved=1;" edge="1" parent="1" source="bKKhn9Pamj0dwOwQ77PS-2" target="bKKhn9Pamj0dwOwQ77PS-4">
          <mxGeometry relative="1" as="geometry" />
        </mxCell>
        <mxCell id="bKKhn9Pamj0dwOwQ77PS-6" value="topic转发" style="edgeLabel;html=1;align=center;verticalAlign=middle;resizable=0;points=[];" vertex="1" connectable="0" parent="bKKhn9Pamj0dwOwQ77PS-5">
          <mxGeometry x="-0.0133" relative="1" as="geometry">
            <mxPoint as="offset" />
          </mxGeometry>
        </mxCell>
        <mxCell id="bKKhn9Pamj0dwOwQ77PS-2" value="move_base_simple/goal" style="ellipse;whiteSpace=wrap;html=1;fontSize=8;" vertex="1" parent="1">
          <mxGeometry x="1030" y="360" width="100" height="30" as="geometry" />
        </mxCell>
        <mxCell id="bKKhn9Pamj0dwOwQ77PS-8" value="" style="edgeStyle=orthogonalEdgeStyle;curved=1;rounded=0;orthogonalLoop=1;jettySize=auto;html=1;" edge="1" parent="1" source="bKKhn9Pamj0dwOwQ77PS-4" target="bKKhn9Pamj0dwOwQ77PS-7">
          <mxGeometry relative="1" as="geometry" />
        </mxCell>
        <mxCell id="bKKhn9Pamj0dwOwQ77PS-9" value="更新" style="edgeLabel;html=1;align=center;verticalAlign=middle;resizable=0;points=[];" vertex="1" connectable="0" parent="bKKhn9Pamj0dwOwQ77PS-8">
          <mxGeometry x="-0.1771" y="-1" relative="1" as="geometry">
            <mxPoint as="offset" />
          </mxGeometry>
        </mxCell>
        <mxCell id="bKKhn9Pamj0dwOwQ77PS-4" value="move_base/goal" style="ellipse;whiteSpace=wrap;html=1;fontSize=8;" vertex="1" parent="1">
          <mxGeometry x="1210" y="365" width="80" height="20" as="geometry" />
        </mxCell>
        <mxCell id="bKKhn9Pamj0dwOwQ77PS-20" style="edgeStyle=orthogonalEdgeStyle;curved=1;rounded=0;orthogonalLoop=1;jettySize=auto;html=1;exitX=1;exitY=0.5;exitDx=0;exitDy=0;entryX=0;entryY=0.5;entryDx=0;entryDy=0;" edge="1" parent="1" source="bKKhn9Pamj0dwOwQ77PS-7" target="bKKhn9Pamj0dwOwQ77PS-13">
          <mxGeometry relative="1" as="geometry" />
        </mxCell>
        <mxCell id="bKKhn9Pamj0dwOwQ77PS-21" value="唤醒" style="edgeLabel;html=1;align=center;verticalAlign=middle;resizable=0;points=[];" vertex="1" connectable="0" parent="bKKhn9Pamj0dwOwQ77PS-20">
          <mxGeometry x="0.5362" y="-3" relative="1" as="geometry">
            <mxPoint as="offset" />
          </mxGeometry>
        </mxCell>
        <mxCell id="bKKhn9Pamj0dwOwQ77PS-23" style="edgeStyle=orthogonalEdgeStyle;curved=1;rounded=0;orthogonalLoop=1;jettySize=auto;html=1;exitX=1;exitY=0.5;exitDx=0;exitDy=0;entryX=0;entryY=0.5;entryDx=0;entryDy=0;" edge="1" parent="1" source="bKKhn9Pamj0dwOwQ77PS-7" target="bKKhn9Pamj0dwOwQ77PS-22">
          <mxGeometry relative="1" as="geometry" />
        </mxCell>
        <mxCell id="bKKhn9Pamj0dwOwQ77PS-7" value="MoveBase::executeCb&lt;br&gt;接收&amp;amp;更新目标&amp;amp;发布目标" style="ellipse;whiteSpace=wrap;html=1;fontSize=8;" vertex="1" parent="1">
          <mxGeometry x="1350" y="352.5" width="90" height="45" as="geometry" />
        </mxCell>
        <mxCell id="bKKhn9Pamj0dwOwQ77PS-10" value="current_goal" style="ellipse;whiteSpace=wrap;html=1;" vertex="1" parent="1">
          <mxGeometry x="1380" y="173" width="80" height="37" as="geometry" />
        </mxCell>
        <mxCell id="bKKhn9Pamj0dwOwQ77PS-24" style="edgeStyle=orthogonalEdgeStyle;curved=1;rounded=0;orthogonalLoop=1;jettySize=auto;html=1;exitX=0.5;exitY=1;exitDx=0;exitDy=0;" edge="1" parent="1" source="bKKhn9Pamj0dwOwQ77PS-13" target="bKKhn9Pamj0dwOwQ77PS-22">
          <mxGeometry relative="1" as="geometry" />
        </mxCell>
        <mxCell id="bKKhn9Pamj0dwOwQ77PS-27" value="全局路径点" style="edgeLabel;html=1;align=center;verticalAlign=middle;resizable=0;points=[];" vertex="1" connectable="0" parent="bKKhn9Pamj0dwOwQ77PS-24">
          <mxGeometry x="-0.2568" y="-3" relative="1" as="geometry">
            <mxPoint as="offset" />
          </mxGeometry>
        </mxCell>
        <mxCell id="bKKhn9Pamj0dwOwQ77PS-13" value="Planner Thread&lt;br&gt;makePlan(temp_goal, *planner_plan_)&lt;br&gt;全局路径规划(返回的是到目标的整个的路径点):std::vector&amp;lt;geometry_msgs::PoseStamped&amp;gt;" style="shape=parallelogram;perimeter=parallelogramPerimeter;whiteSpace=wrap;html=1;fixedSize=1;" vertex="1" parent="1">
          <mxGeometry x="1550" y="290" width="330" height="62.5" as="geometry" />
        </mxCell>
        <mxCell id="bKKhn9Pamj0dwOwQ77PS-17" style="edgeStyle=orthogonalEdgeStyle;curved=1;rounded=0;orthogonalLoop=1;jettySize=auto;html=1;exitX=0.5;exitY=0;exitDx=0;exitDy=0;dashed=1;dashPattern=8 8;" edge="1" parent="1" source="bKKhn9Pamj0dwOwQ77PS-7" target="bKKhn9Pamj0dwOwQ77PS-7">
          <mxGeometry relative="1" as="geometry">
            <Array as="points">
              <mxPoint x="1395" y="333" />
              <mxPoint x="1460" y="333" />
              <mxPoint x="1460" y="418" />
              <mxPoint x="1395" y="418" />
            </Array>
          </mxGeometry>
        </mxCell>
        <mxCell id="bKKhn9Pamj0dwOwQ77PS-18" value="10HZ循环不断接收&amp;amp;更新目标" style="edgeLabel;html=1;align=center;verticalAlign=middle;resizable=0;points=[];fontSize=7;fontColor=#FF00FF;" vertex="1" connectable="0" parent="bKKhn9Pamj0dwOwQ77PS-17">
          <mxGeometry x="-0.2641" y="-9" relative="1" as="geometry">
            <mxPoint x="19" y="-2" as="offset" />
          </mxGeometry>
        </mxCell>
        <mxCell id="bKKhn9Pamj0dwOwQ77PS-22" value="1.将全局路径设置到局部路径规划器中&lt;br&gt;tc_-&amp;gt;setPlan(*controller_plan_)&lt;br&gt;2.计算速度命令&lt;br&gt;tc_-&amp;gt;computeVelocityCommands(cmd_vel)" style="rounded=0;whiteSpace=wrap;html=1;align=left;" vertex="1" parent="1">
          <mxGeometry x="1550" y="420" width="250" height="60" as="geometry" />
        </mxCell>
        <mxCell id="bKKhn9Pamj0dwOwQ77PS-26" value="executeCycle(CONTROLLING状态)&lt;br&gt;进行局部路径规划器" style="text;strokeColor=none;align=left;fillColor=none;html=1;verticalAlign=middle;whiteSpace=wrap;rounded=0;fontColor=#3333FF;" vertex="1" parent="1">
          <mxGeometry x="1550" y="390" width="220" height="30" as="geometry" />
        </mxCell>
      </root>
    </mxGraphModel>
  </diagram>
</mxfile>
